<?xml version="1.0" encoding="utf-8"?>
<!-- Generator: Adobe Illustrator 25.4.1, SVG Export Plug-In . SVG Version: 6.00 Build 0)  -->
<svg version="1.1" id="Layer_1" xmlns="http://www.w3.org/2000/svg" xmlns:xlink="http://www.w3.org/1999/xlink" x="0px" y="0px"
	 viewBox="0 0 502 74" style="enable-background:new 0 0 502 74;" xml:space="preserve">
<style type="text/css">
	.st0{fill:#07A9E0;}
	.st1{fill:#4A114A;}
</style>
<g>
	<g>
		<g>
			<path class="st0" d="M435.1,28.6c-1.3,0-5.6,1.5-10.6,7.1c-0.2,0-0.2-0.2-0.2-0.3c0-0.3,0.2-0.6,0.5-1.2c1-1.7,2.5-3.4,2.5-4.4
				c0-0.9-1.3-1.2-2.1-1.2c-1.3,0-2.3,1.5-3.3,3.4c-0.3,0.5-0.6,1.3-1.1,2.4c0,0,0,0,0,0c-0.1,0.2-0.3,0.3-0.4,0.5
				c-2.8,3.7-7.2,9.2-9.7,9.2c-0.9,0-1.2-0.6-1.2-1.7c0-3,2.1-8.5,2.1-10.1c0-1.6-1.5-2.7-2.8-2.7c-2.5,0-6.6,3-9.2,6.5
				c0.1-0.7,0.6-2.8,0.6-4.6c0-2-2.3-2.8-3.7-2.8c-2.1,0-6.2,3.1-8.5,6.4c0.3-1.1,2.5-6.2,2.5-7.6c0-1.2-0.9-1.5-1.8-1.5
				c-0.6,0-1.5,0.8-2,2.5c-0.3,0.9-0.6,1.7-0.9,2.6c-0.8,0-3.8,2.2-6.9,2.2c-1.2,0-1.2-1.8-1.2-2.4c0-1.2-1.3-2.5-4.2-2.5
				c-3.5,0-7.3,2.9-9.5,7c0,0,0,0,0,0c-5,6.3-16.4,18.4-27.7,18.4c-4.2,0-7-3.4-7-8.1c0-16.6,21.6-37.8,32.8-37.8
				c1.9,0,2.7,1.1,2.7,2.6c0,4.9-4.7,10.8-8.2,11.6c-2.2,0.5-2.4,1.6-2.4,2.5c0,0.8,0.5,1.5,1.9,1.5c3.3,0,12.6-8.5,12.6-15.6
				c0-3.8-3.1-5.6-6.6-5.6c-13.8,0-36.5,22.7-36.5,41.6c0,6.6,4.2,10.6,10.6,10.6c9.4,0,19.2-8.6,26-15.9c0,0.4-0.1,0.8-0.1,1.2
				c0,3.3,2.2,4.9,4.3,4.9c5.4,0,8.9-6.1,10.6-10.7c0.3,0,3.9,0,6.7-1.3c0.3-0.1,0.6-0.3,0.9-0.4c-1.9,5.5-3.7,10.5-3.7,11.3
				c0,1,0.9,1.7,1.6,1.7c1.2,0,1.2-1.3,1.9-2.8c0.8-1.8,2.2-4.5,3.5-6.4c2.7-3.9,6.7-6.9,7.6-6.9c0.8,0,1.2,0.6,1.2,1.2
				c0,2.3-3.5,11.1-3.5,12c0,0.8,1.2,1.8,1.9,1.8c0.7,0,1.3-1.2,2.1-2.9c1.2-3,7.5-11.3,9.9-11.3c0.6,0,0.8,0.5,0.8,1
				c0,0.5-1.7,6-1.7,9.2c0,2.6,1.3,4.1,3.4,4.1c2.2,0,5.2-2.4,7.8-5c-0.4,1-0.7,2-1.1,2.9c-1.8,5.2-5.4,15.8-5.4,22.4
				c0,1.8,0.9,2.5,1.8,2.5c1,0,2.1-1.2,2.1-2c0-0.9-0.4-1.5-0.4-3.1c0-5.7,4.2-18.6,5.7-18.6c0.3,0,1.3,1.2,2.9,1.2
				c8.8,0,14.6-11,14.6-15.3C437.9,29.8,436.3,28.6,435.1,28.6z M367.3,44.8c-1,0-1.9-0.8-1.9-2.2c0-5,4.4-10.6,7.7-10.6
				c0.2,0,0.2,0.1,0.2,0.2c0,0.3-0.2,0.9-0.2,1.7c0,1,1.2,1.4,1.2,1.6C374.2,37.9,370.3,44.8,367.3,44.8z M423.6,44.4
				c-1.6,0-2.4-1.2-2.4-1.2c1.4-3.8,9.3-10.9,12-10.9c0.8,0,1.2,0.5,1.2,1.1C434.3,35.3,429.9,44.4,423.6,44.4z"/>
			<path class="st0" d="M501.6,25.9c-0.4-2.3-4.8-5.7-12.6-4.6c-1.7,0.2-3.3,0.4-4.9,0.8c2.6-4.4,3-5.5,4.3-6.5
				c1.5-1.2,1.6-1.8,1.6-2.7c0-0.9-0.6-1.4-1.6-1.4c-1,0-1.8,0.8-3.2,2.6c-1.8,2.5-3.3,5.3-5.5,9.3c-0.8,0.2-1.6,0.3-2.4,0.3
				c-0.9,0-1.2-0.5-2.3-0.5c-1.2,0-2,0.9-2,1.9c0,1.1,0.9,1.6,3.2,1.6c0.5,0,1.1,0,1.6-0.1c-1.2,2.4-2.4,4.9-3.5,7.4
				c-0.2,0.2-0.4,0.5-0.6,0.8c-2.8,3.7-8.2,9.9-15,9.9c-1.8,0-2.3-1.5-2.3-2.3s0.1-1.2,1.5-1.5c4.8-1.1,11.5-5.5,11.5-9.5
				c0-1.5-1.7-2.7-3.2-2.7c-3.5,0-8,2.4-11.2,8.1c-3,3.5-7.6,7.7-10.4,7.7c-1.7,0-2.5-1.4-2.5-3.6c0-1.7,1.1-6,2.5-8.2
				c3.4-2.7,7-5.2,12-11.6c5.5-7.1,6.8-11.8,6.8-14c0-1.5-1.5-3.2-3-3.2c-4.3,0-7.8,3.9-12.4,11.9c-4.4,7.5-9.4,19.4-9.4,26
				c0,3.5,3,5.6,5.5,5.6c2.5,0,5.8-2.2,8.8-4.9v0.1c0,2.5,2.2,4.9,4.6,4.9c5.8,0,10.6-3.2,14.2-6.6c-0.8,2.3-1.2,4.4-1.2,6
				c0,1.9,0.8,3.1,1.9,3.1c1.1,0,1.6-0.9,1.6-1.5c0-0.7-0.5-1.1-0.5-2.1c0-4,4.2-13.3,8.4-20.8c2.2-0.8,4.3-1.1,5.9-1.4
				c7.6-1.5,10.8,2.2,10.8,2.8c0,0.4-0.2,0.8-0.2,1.3c0,0.5,0.2,0.7,0.8,0.7C500.2,28.9,501.9,27.3,501.6,25.9z M465.2,31.7
				c0.6,0,0.9,0.2,0.9,0.8c0,1.6-6.1,5.9-8.8,6C458.5,36.7,462.8,31.7,465.2,31.7z M450.7,16.9c3.9-7.2,7.1-9.3,8.1-9.3
				c0.8,0,1.2,0.3,1.2,1.1c0,1.8-0.9,4.2-5.5,10.4c-4.2,5.6-8,9-9,9.5C445.7,27.3,446.6,24,450.7,16.9z"/>
			<path class="st0" d="M491,42.1c1.2-0.9,1.8-1.7,2.6-1.7c0.7,0,1.1,0.5,1.1,1.1c0,0.7-0.5,1.2-1.5,2.1c-2.3,1.8-4.9,3.9-8.5,3.9
				c-2.4,0-5.1-2.4-5.1-4.9c0-0.8-0.2-1-0.2-1.8c0-0.7,0.6-1.5,1.3-1.8c3.2-7.3,8.3-10.2,12.2-10.2c1.5,0,3.2,1.2,3.2,2.7
				c0,3.9-6.7,8.4-11.5,9.5c-1.4,0.3-1.5,0.8-1.5,1.5c0,0.8,0.5,2.3,2.3,2.3C487.6,44.7,489.6,43.2,491,42.1z M484.1,38.5
				c2.7-0.1,8.8-4.4,8.8-6c0-0.6-0.3-0.8-0.9-0.8C489.6,31.7,485.3,36.7,484.1,38.5z"/>
		</g>
		<polygon class="st1" points="3.7,42.3 0,47.6 52.6,47.6 48.6,42.3 		"/>
		<polygon class="st1" points="20.6,11.8 20.6,41.1 21.9,41.1 21.9,10.2 		"/>
		<polygon class="st1" points="26.2,5.1 25.6,5.9 25.6,41.1 26.9,41.1 26.9,5.9 		"/>
		<polygon class="st1" points="35.4,41.1 36.7,41.1 36.7,17.8 35.4,16.2 		"/>
		<polygon class="st1" points="30.5,41.1 31.8,41.1 31.8,11.9 30.5,10.3 		"/>
		<polygon class="st1" points="8.4,26.7 8.4,41.1 9.7,41.1 9.7,25.1 		"/>
		<polygon class="st1" points="6,29.6 6,41.1 7.3,41.1 7.3,28 		"/>
		<polygon class="st1" points="10.8,23.7 10.8,41.1 12.1,41.1 12.1,22.1 		"/>
		<polygon class="st1" points="15.7,17.7 15.7,41.1 17.1,41.1 17.1,16.2 		"/>
		<polygon class="st1" points="45.1,41.1 46.4,41.1 46.4,29.8 45.1,28.2 		"/>
		<polygon class="st1" points="47.6,41.1 48.5,41.1 48.5,32.2 47.6,31.1 		"/>
		<polygon class="st1" points="3.6,32.2 3.6,41.1 4.4,41.1 4.4,31.1 		"/>
		<polygon class="st1" points="42.7,41.1 44,41.1 44,26.8 42.7,25.2 		"/>
		<polygon class="st1" points="40.2,41.1 41.5,41.1 41.5,23.8 40.2,22.2 		"/>
		<path class="st1" d="M308.6,20.5v2.7h3c0.1,0,0.2,0,0.3,0c-0.1,0.5-0.9,2.6-5,9.5c-0.9-1.6-5.6-9.4-5.6-9.4l0.1,0.1
			c0,0-0.1-0.1-0.1-0.2h2.4v-2.7h-12.7v2.7h2.3c0.4,0,0.7,0,2.8,3.4c0,0,5.6,9.3,5.8,9.6v8.9h0H299v2.7h12.8v-2.7h-2.7
			c-0.7,0-0.7,0-0.8-0.3c-0.2-0.7-0.3-2.3-0.3-4.6V36c0.2-0.3,7.1-12,7.1-12c0.5-0.9,0.5-0.9,1.2-0.9h1.8v-2.7H308.6z"/>
		<path class="st1" d="M196.2,44.9c-0.2-0.7-0.3-2.2-0.3-4.6V23.5h0.2c5.3,0,7,1,7.4,1.8c0.3,0.5,0.6,1.1,1.4,1.1
			c0.7,0,1.2-0.5,1.2-1.2c0-0.2-0.1-0.4-0.3-1.1l-1.2-3.6l-0.5,0h-23.4l-1.2,3.6c-0.3,0.8-0.3,0.9-0.3,1.1c0,0.7,0.5,1.2,1.2,1.2
			c0.8,0,1.1-0.6,1.4-1.1c0.4-0.8,2.1-1.8,7.4-1.8h0.2v21.7h0h-4v2.7h15.1v-2.7h-3.6C196.3,45.2,196.3,45.2,196.2,44.9L196.2,44.9z"
			/>
		<path class="st1" d="M105.8,23.5c0.2,0.7,0.3,2.3,0.3,4.6v17.1h0h-2.7v2.7h22l0.6-1.7c0.6-2,0.8-2.4,0.8-2.8
			c0-0.7-0.5-1.1-1.1-1.1c-0.7,0-1,0.5-1.2,0.7l-0.1,0.1c-1.2,1.9-7.3,1.9-9.3,1.9h-1.6c-0.6,0-0.6,0-0.8-0.6
			c-0.2-1.1-0.3-3.4-0.3-7.6v-2.3h3.5c3.4,0,4.1,0.3,4.2,0.4c0,0,0,0,0,0.1c0,0,0,0,0,0V37h2.7v-8.5h-2.7v2.1c0,0.6,0,0.6-0.3,0.7
			c-0.6,0.2-1.8,0.3-4,0.3h-3.5v-8.2h3.1c4.9,0,6.6,0.9,6.8,1.2c0,0.5,0.2,1.4,1.4,1.4c1,0,1.1-0.4,1.6-4.8l0.1-0.7h-23.2v2.7h2.7
			C105.7,23.2,105.7,23.2,105.8,23.5L105.8,23.5z"/>
		<path class="st1" d="M141.2,26.7v18.5c-0.2,0-0.5,0-0.7,0h-1.9v2.7h9.6v-2.7h-2.4c-0.9,0-0.9,0-1.1-0.8c-0.3-1.9-0.3-4.9-0.3-7.1
			v-9.7c2,2.1,18.5,19.4,18.5,19.4c0,0,0.2,0.2,0.2,0.2c0.6,0.6,1,1,1.6,1c0.6,0,1.1-0.5,1.1-1.1V23.2c0.2,0,0.4,0,0.7,0h1.9v-2.7
			h-9.6v2.7h2.4c0.9,0,0.9,0,1.1,0.8c0.3,1.9,0.3,4.9,0.3,7.1v7c-2-2.1-16.8-17.6-16.8-17.6h-8.6v2.7h1.9
			C140.6,23.2,141.2,25,141.2,26.7L141.2,26.7z"/>
		<path class="st1" d="M284.8,45.2c-1.4,0-1.6-0.2-2.7-1.3l0,0c-1.5-1.6-2.8-3.4-5.7-7.4c0,0-0.6-0.8-1.1-1.5
			c3.7-0.8,5.9-3.3,5.9-6.7c0-3.8-3.4-7.7-10-7.7h-13.7v2.7h2.7c0.6,0,0.7,0,0.8,0.3c0.2,0.7,0.3,2.3,0.3,4.6v17.1h0h-2.7v2.7h12.8
			v-2.7h-2.7c-0.7,0-0.7,0-0.8-0.3c-0.2-0.7-0.3-2.2-0.3-4.6V36h1.7c3.1,5.5,6.3,10.3,7.7,11.4c0.6,0.5,1.5,0.5,2.6,0.5h5.7v-2.7
			H284.8z M268.6,33.3h-0.9v-9.9h1.9c1,0,5.2,1,5.2,5.4C274.7,32.9,270.4,33.3,268.6,33.3L268.6,33.3z"/>
		<path class="st1" d="M219.7,23.5c0.2,0.7,0.3,2.3,0.3,4.6V39c0,3.6,1.6,9.6,12.1,9.6c5.7,0,12.3-2.9,12.3-11.1V23.3
			c0.2,0,0.5,0,0.7,0h1.9v-2.7h-9.6v2.7h2.4c0.9,0,0.9,0,1.1,0.8c0.3,1.9,0.3,4.9,0.3,7.1v6.4c0,7-4.9,8-7.9,8c-6,0-6.9-4.3-6.9-8.5
			V23.2h0h2.7v-2.7h-12.8v2.7h2.7C219.6,23.2,219.6,23.3,219.7,23.5L219.7,23.5z"/>
		<path class="st1" d="M89.1,40.9c-1,0-1.2,0.8-1.3,1.2l0,0.1c-0.4,2.3-5.3,3.5-7.7,3.5c-7.1,0-10.3-5.8-10.3-11.2
			c0-6.9,4.6-11.7,11.3-11.7c2.8,0,5.5,1.3,5.6,1.9c0,0,0,0.1,0,0.1c0.2,0.8,0.4,1.5,1.3,1.5c1.3,0,1.3-0.8,1.6-4.3l0-0.5l-0.5-0.2
			c-2.7-1-5.3-1.5-7.8-1.5c-10.5,0-18.4,6.6-18.4,15.4c0,8.4,5.9,13.4,15.7,13.4c3.8,0,7.8-0.8,10.8-2.2l0.4-0.1l0.3-3.5l0.1-0.9
			C90.4,41.4,89.9,40.9,89.1,40.9L89.1,40.9z"/>
	</g>
</g>
</svg>
