<svg xmlns="http://www.w3.org/2000/svg" width="66.625" height="66.625" viewBox="0 0 66.625 66.625">
    <defs>
        <style>
            .prefix__cls-1{fill:none;stroke:#00a9e0;stroke-linecap:round;stroke-linejoin:round;stroke-miterlimit:10}
        </style>
    </defs>
    <g id="prefix__icon_how-to_step-3_complete" data-name="icon/how-to/step-3/complete" transform="translate(.5 .5)">
        <g id="prefix__house-nature" transform="translate(-2.098 -2.467)">
            <g id="prefix__Group" transform="translate(2.098 2.467)">
                <g id="prefix__credit-card-check">
                    <circle id="prefix__Oval" cx="17.5" cy="17.5" r="17.5" class="prefix__cls-1" transform="translate(30.625 30.625)"/>
                    <path id="prefix__Shape" d="M16.144 0L7.671 11.3a2.19 2.19 0 0 1-3.3.236L0 7.157" class="prefix__cls-1" transform="translate(39.78 43.038)"/>
                    <path id="prefix__Shape-2" d="M56.875 21.875v-17.5A4.375 4.375 0 0 0 52.5 0H4.375A4.375 4.375 0 0 0 0 4.375v35a4.375 4.375 0 0 0 4.375 4.375h17.5" class="prefix__cls-1" data-name="Shape"/>
                    <path id="prefix__Shape-3" d="M0 0h56.875" class="prefix__cls-1" data-name="Shape" transform="translate(0 13.125)"/>
                    <path id="prefix__Shape-4" d="M0 0h17.5" class="prefix__cls-1" data-name="Shape" transform="translate(8.75 24.063)"/>
                    <path id="prefix__Shape-5" d="M0 0h8.75" class="prefix__cls-1" data-name="Shape" transform="translate(8.75 32.813)"/>
                </g>
            </g>
        </g>
    </g>
</svg>
